HIERARCHY
ROOT Hips
{
 OFFSET 0.000000 0.000000 0.000000
 CHANNELS 6 Xposition Yposition Zposition Yrotation Xrotation Zrotation
 JOINT Chest
 {
  OFFSET 0.000000 9.581000 -0.001100
  CHANNELS 3 Yrotation Xrotation Zrotation
  JOINT Chest2
  {
   OFFSET 0.000000 9.561100 0.002200
   CHANNELS 3 Yrotation Xrotation Zrotation
   JOINT Chest3
   {
    OFFSET 0.000000 9.521100 0.000000
    CHANNELS 3 Yrotation Xrotation Zrotation
    JOINT Chest4
    {
     OFFSET 0.000000 9.511400 0.000000
     CHANNELS 3 Yrotation Xrotation Zrotation
     JOINT Neck
     {
      OFFSET 0.000000 14.375100 0.000000
      CHANNELS 3 Yrotation Xrotation Zrotation
      JOINT Head
      {
       OFFSET 0.000000 8.901200 0.004600
       CHANNELS 3 Yrotation Xrotation Zrotation
       End Site
       {
        OFFSET 0.000000 16.962200 0.002400
       }
      }
     }
     JOINT RightCollar
     {
      OFFSET -2.920100 9.518800 0.000000
      CHANNELS 3 Yrotation Xrotation Zrotation
      JOINT RightShoulder
      {
       OFFSET -13.664500 0.000000 0.000000
       CHANNELS 3 Yrotation Xrotation Zrotation
       JOINT RightElbow
       {
        OFFSET 0.000000 -29.999200 0.000000
        CHANNELS 3 Yrotation Xrotation Zrotation
        JOINT RightWrist
        {
         OFFSET 0.000000 -24.253600 0.000000
         CHANNELS 3 Yrotation Xrotation Zrotation
         End Site
         {
          OFFSET 0.000000 -17.918900 0.000000
         }
        }
       }
      }
     }
     JOINT LeftCollar
     {
      OFFSET 2.920100 9.518800 0.000000
      CHANNELS 3 Yrotation Xrotation Zrotation
      JOINT LeftShoulder
      {
       OFFSET 13.664500 0.000000 0.000000
       CHANNELS 3 Yrotation Xrotation Zrotation
       JOINT LeftElbow
       {
        OFFSET 0.000000 -29.999200 0.000000
        CHANNELS 3 Yrotation Xrotation Zrotation
        JOINT LeftWrist
        {
         OFFSET 0.000000 -24.253600 0.000000
         CHANNELS 3 Yrotation Xrotation Zrotation
         End Site
         {
          OFFSET 0.000000 -17.918900 0.000000
         }
        }
       }
      }
     }
    }
   }
  }
 }
 JOINT RightHip
 {
  OFFSET -7.797300 0.005300 0.000500
  CHANNELS 3 Yrotation Xrotation Zrotation
  JOINT RightKnee
  {
   OFFSET 0.000000 -40.663400 -0.000500
   CHANNELS 3 Yrotation Xrotation Zrotation
   JOINT RightAnkle
   {
    OFFSET 0.000000 -39.523700 -0.000900
    CHANNELS 3 Yrotation Xrotation Zrotation
    JOINT RightToe
    {
     OFFSET 0.000000 -6.418000 14.485300
     CHANNELS 3 Yrotation Xrotation Zrotation
     End Site
     {
      OFFSET 0.000000 -1.465200 6.326400
     }
    }
   }
  }
 }
 JOINT LeftHip
 {
  OFFSET 7.797300 0.005300 0.000500
  CHANNELS 3 Yrotation Xrotation Zrotation
  JOINT LeftKnee
  {
   OFFSET 0.000000 -40.663400 -0.000500
   CHANNELS 3 Yrotation Xrotation Zrotation
   JOINT LeftAnkle
   {
    OFFSET 0.000000 -39.523700 -0.000900
    CHANNELS 3 Yrotation Xrotation Zrotation
    JOINT LeftToe
    {
     OFFSET 0.000000 -6.418000 14.485300
     CHANNELS 3 Yrotation Xrotation Zrotation
     End Site
     {
      OFFSET 0.000000 -1.465200 6.326400
     }
    }
   }
  }
 }
}
MOTION
Frames: 9
Frame Time: 0.008333
0.000000 86.422400 0.000000 0.000000 -5.767877 0.000000 0.000000 11.653817 0.000000 0.000000 -5.885947 0.000000 0.000000 -0.000000 0.000000 0.000000 -0.000000 0.000000 0.000000 12.528835 0.000000 0.000000 0.711642 0.000000 0.000000 -0.000000 0.000000 0.000000 0.000000 -90.000000 0.000000 -2.309062 0.000000 0.000000 2.309062 0.000000 0.000000 -0.000000 0.000000 0.000000 -0.000000 90.000000 0.000000 -2.309062 0.000000 0.000000 2.309062 0.000000 0.000000 8.520406 0.000000 0.000000 1.905762 0.000000 -0.000000 -4.658285 0.000000 0.000000 -0.000000 0.000000 0.000000 8.520406 0.000000 0.000000 1.905762 0.000000 -0.000000 -4.658285 0.000000 0.000000 -0.000000 0.000000
-21.839544 126.419904 69.199079 -173.314771 -28.070697 -1.815701 -2.960719 21.000266 0.500739 -0.405929 2.751558 0.128644 -0.634962 4.534469 0.196454 -2.526240 17.913658 0.495340 1.544980 14.956201 -1.227710 1.890940 -10.020153 -1.631259 -6.231382 -2.457383 -0.819207 -25.108702 -5.551669 -0.965741 -105.080867 -17.595059 91.442548 -32.854395 -7.985032 -0.353989 -4.870398 -2.082117 0.963702 16.299423 -9.433623 2.146158 84.561624 -29.533958 -82.174516 35.137612 -27.085345 1.208256 -6.346914 -57.533576 6.532590 -29.190493 68.022969 -28.806836 27.128543 34.474456 17.477402 0.000211 -0.007050 0.000094 -11.612645 -48.727673 -3.700199 29.949973 80.034579 21.236561 0.581433 -3.868462 5.750718 0.005262 0.003870 0.002332
-21.838586 126.420291 69.199580 -173.314948 -28.078944 -1.820231 -2.969799 20.993679 0.502471 -0.401606 2.753920 0.128405 -0.646264 4.509181 0.196331 -2.523598 17.929416 0.491972 1.540226 14.972777 -1.236028 1.887992 -10.002822 -1.639031 -6.221466 -2.528672 -0.884909 -25.062596 -5.508073 -0.907240 -105.070859 -17.637709 91.412766 -32.839950 -8.006580 -0.358895 -4.871016 -2.097687 0.970372 16.313208 -9.400015 2.147801 84.457560 -29.508615 -82.208207 35.104927 -27.056392 1.328822 -6.413201 -57.527840 6.565827 -29.062366 68.072547 -28.680362 27.076453 34.457768 17.436016 0.012882 -0.002185 0.005707 -11.632639 -48.722186 -3.689171 29.909997 80.037394 21.195009 0.592341 -3.866071 5.746551 0.005580 0.004171 0.002472
-21.840190 126.420625 69.200430 -173.319178 -28.087879 -1.807001 -2.977228 20.986255 0.489266 -0.396951 2.765289 0.126907 -0.648042 4.493681 0.192939 -2.528143 17.925533 0.494111 1.531082 14.987209 -1.246981 1.888654 -9.981513 -1.642777 -6.206937 -2.568165 -0.925175 -25.039256 -5.485939 -0.875383 -105.047327 -17.656772 91.393324 -32.822505 -8.034936 -0.367278 -4.877093 -2.115290 0.974241 16.337143 -9.364370 2.159351 84.351062 -29.454618 -82.244488 35.085006 -27.079867 1.419884 -6.456799 -57.526509 6.544985 -28.897899 68.121506 -28.517558 27.079497 34.450511 17.424882 0.004912 -0.003752 0.002176 -11.676378 -48.729846 -3.684458 30.032776 80.036566 21.292446 0.598314 -3.856042 5.741039 -0.001461 -0.001356 -0.000647
-21.839147 126.421088 69.200934 -173.328381 -28.097598 -1.807087 -2.973659 20.980192 0.487857 -0.396311 2.764080 0.126271 -0.641917 4.489645 0.191473 -2.530326 17.924540 0.492557 1.530533 15.006224 -1.245154 1.879977 -9.967714 -1.646505 -6.201044 -2.570932 -0.935446 -25.027409 -5.501435 -0.856653 -105.008305 -17.654185 91.376960 -32.851587 -8.030637 -0.401891 -4.894079 -2.166850 0.982486 16.387594 -9.304250 2.182303 84.241233 -29.393629 -82.266819 35.075790 -27.099403 1.475703 -6.464760 -57.518669 6.530716 -28.811659 68.147125 -28.408587 27.059753 34.447115 17.400465 0.006118 -0.004275 0.002710 -11.683280 -48.725013 -3.677232 30.065824 80.037092 21.325368 0.598816 -3.852879 5.734611 -0.001460 -0.002100 -0.000647
-21.838386 126.421713 69.201205 -173.330311 -28.108105 -1.808977 -2.969143 20.973503 0.487480 -0.394444 2.744032 0.120860 -0.642639 4.504381 0.194353 -2.525928 17.898496 0.483632 1.524642 15.045814 -1.235084 1.872747 -9.950606 -1.643350 -6.201909 -2.546699 -0.938248 -25.023314 -5.516627 -0.844550 -104.959955 -17.626275 91.358982 -32.860440 -8.063196 -0.437082 -4.909607 -2.167583 0.992280 16.410551 -9.261302 2.199646 84.155864 -29.338355 -82.292552 35.072391 -27.114722 1.510897 -6.469940 -57.508031 6.507304 -28.753650 68.165340 -28.323336 27.060696 34.440880 17.375027 0.007424 -0.005103 0.003289 -11.693315 -48.719063 -3.673259 30.124050 80.036788 21.383791 0.596427 -3.852066 5.727289 -0.001342 -0.001906 -0.000595
-21.837661 126.422032 69.202086 -173.332220 -28.113164 -1.810467 -2.965624 20.963267 0.485438 -0.393362 2.740604 0.120599 -0.643126 4.511573 0.196184 -2.522492 17.870658 0.473978 1.518813 15.072616 -1.229267 1.867304 -9.932808 -1.639830 -6.199270 -2.559722 -0.953379 -25.025840 -5.499322 -0.839809 -104.902515 -17.572339 91.341873 -32.823721 -8.111146 -0.459474 -4.917151 -2.157114 1.000102 16.416999 -9.234619 2.210984 84.086851 -29.290555 -82.315027 35.075689 -27.120320 1.521681 -6.474184 -57.502075 6.490710 -28.734030 68.177615 -28.275686 27.045498 34.432076 17.330986 0.008950 -0.005373 0.003965 -11.711019 -48.721415 -3.661462 30.192778 80.039621 21.446485 0.592694 -3.849204 5.721317 -0.002668 -0.002666 -0.001182
-21.837738 126.422467 69.202892 -173.333879 -28.117808 -1.807996 -2.963627 20.951879 0.480648 -0.390103 2.738444 0.117985 -0.645947 4.517535 0.199282 -2.520622 17.866448 0.471170 1.514190 15.061504 -1.229928 1.856528 -9.900953 -1.619284 -6.194537 -2.650377 -0.998365 -25.029907 -5.410892 -0.838754 -104.840083 -17.497004 91.335445 -32.866588 -8.150913 -0.494226 -4.919595 -2.178654 1.003529 16.444041 -9.199068 2.225086 84.028039 -29.262742 -82.325763 35.092517 -27.083558 1.513523 -6.463001 -57.492860 6.455848 -28.699187 68.189465 -28.211654 27.033069 34.416786 17.289045 0.004461 -0.003834 0.001976 -11.719321 -48.721534 -3.656174 30.221708 80.041296 21.468441 0.595104 -3.848708 5.719266 -0.003281 -0.002947 -0.001454
-21.837727 126.423169 69.203386 -173.338351 -28.123398 -1.805951 -2.948888 20.929943 0.472622 -0.392047 2.750083 0.122938 -0.640363 4.494852 0.193055 -2.526024 17.888980 0.478506 1.512414 15.074030 -1.223082 1.851969 -9.894234 -1.608484 -6.196627 -2.659646 -1.006509 -25.030549 -5.391272 -0.837709 -104.776915 -17.402160 91.346926 -32.918598 -8.189203 -0.517021 -4.920578 -2.206878 1.011564 16.470939 -9.163760 2.233162 83.963942 -29.241245 -82.324398 35.088818 -27.050526 1.510177 -6.448139 -57.480556 6.423109 -28.650569 68.196628 -28.144646 27.049366 34.404212 17.280541 -0.004166 -0.001235 -0.001846 -11.724582 -48.714236 -3.644582 30.210652 80.043160 21.454457 0.590419 -3.855690 5.714166 0.001421 -0.000292 0.000630
